<?xml version="1.0" encoding="UTF-8"?>
<svg id="Layer_1" xmlns="http://www.w3.org/2000/svg" width="350.4mm" height="82.2mm" version="1.1" viewBox="0 0 993.3 233.1">
  <!-- Generator: Adobe Illustrator 29.5.1, SVG Export Plug-In . SVG Version: 2.1.0 Build 141)  -->
  <path d="M722.8.6c14-1.7,37.7,1.2,52.1,3.3,94.2,13.6,197.8,74.3,215.6,174.9,4.1,23.1,8,52.4-23.6,54.3h-240.5c-12.3-.4-22.8-8.2-25-20.5-1-64-1.1-128.5,0-192.5,2.1-10.2,10.9-18.3,21.3-19.5ZM941.3,183.2c-20.6-83.6-111.5-126.1-191-132.4v132.4h191Z"/>
  <path d="M382.1.1h144.3c29.2,2,53.1,25.2,55.9,54.3v123.3c-2.7,29.7-27.2,53.1-56.9,54.9h-140.6c-30.5-1.4-55.4-25.5-57.8-55.9,1.7-39.4-2.3-80.8,0-119.9S352.5,2.6,382.1.1ZM385,49c-4.9,1.2-8.2,4.7-9,9.7v114.7c.5,5.7,5.1,10,10.8,10.3h135.4c5.6-.1,10.8-4.1,11.3-9.8V58.7c-.4-5.3-5.2-9.6-10.3-9.8h-138.1Z"/>
  <path d="M243.1,182.3V20.9c0-3.3,4.9-11.3,7.5-13.7,14.3-13.4,38-5.6,41.4,13.7.8,63.9,1.1,128.2-.2,192.1-5.4,23.3-27.8,20.3-46.6,19.2-84.8-5.4-176.9-45.7-221.1-121C10.5,87.9-2.2,50.4.3,23.3S29.8-7.4,43.9,9.4c7.3,8.8,5.3,16.9,6.3,27.3,3.9,41.6,31.1,77.3,64.1,100.9,37.3,26.7,83.2,40.9,128.8,44.7Z"/>
  <path d="M639.4.6c13.5-1.3,25.2,8.3,27,21.7v189c-5,29.9-47.2,28.2-49.5-2.9V24.7c.7-12.4,9.9-22.9,22.5-24.1Z"/>
</svg>