<?xml version="1.0" encoding="UTF-8"?>
<svg id="Layer_1" xmlns="http://www.w3.org/2000/svg" width="331.3mm" height="102.7mm" xmlns:xlink="http://www.w3.org/1999/xlink" version="1.1" viewBox="0 0 939.3 291">
  <!-- Generator: Adobe Illustrator 29.5.1, SVG Export Plug-In . SVG Version: 2.1.0 Build 141)  -->
  <defs>
    <filter id="drop-shadow-1" x="-11" y="-33" width="961.2" height="356.4" filterUnits="userSpaceOnUse">
      <feOffset dx="0" dy="0"/>
      <feGaussianBlur result="blur" stdDeviation="28.3"/>
      <feFlood flood-color="#000" flood-opacity=".4"/>
      <feComposite in2="blur" operator="in"/>
      <feComposite in="SourceGraphic"/>
    </filter>
  </defs>
  <g style="filter: url(#drop-shadow-1);">
    <path d="M649.7,53.1c11.1-1.4,30,1,41.5,2.6,75,10.8,157.5,59.2,171.7,139.3,3.3,18.4,6.4,41.7-18.8,43.2h-191.5c-9.8-.3-18.2-6.5-19.9-16.3-.8-51-.9-102.3,0-153.3,1.7-8.1,8.7-14.6,17-15.5h0ZM823.7,198.5c-16.4-66.6-88.8-100.4-152.1-105.4v105.4h152.1Z" style="fill: #fff;"/>
    <path d="M378.4,52.7h114.9c23.2,1.6,42.3,20.1,44.5,43.2v98.2c-2.1,23.6-21.7,42.3-45.3,43.7h-111.9c-24.3-1.1-44.1-20.3-46-44.5,1.4-31.4-1.8-64.3,0-95.5s20.3-43.2,43.9-45.1ZM380.7,91.6c-3.9,1-6.5,3.7-7.2,7.7v91.3c.4,4.5,4.1,8,8.6,8.2h107.8c4.5,0,8.6-3.3,9-7.8v-91.7c-.3-4.2-4.1-7.6-8.2-7.8h-110Z" style="fill: #fff;"/>
    <path d="M267.7,197.8V69.3c0-2.6,3.9-9,6-10.9,11.4-10.7,30.3-4.5,33,10.9.6,50.9.9,102.1-.2,153-4.3,18.6-22.1,16.2-37.1,15.3-67.5-4.3-140.8-36.4-176-96.3-10.8-18.6-20.9-48.4-18.9-70,2-21.6,23.5-24.4,34.7-11.1,5.8,7,4.2,13.5,5,21.7,3.1,33.1,24.8,61.5,51,80.3,29.7,21.3,66.2,32.6,102.6,35.6Z" style="fill: #fff;"/>
    <path d="M583.3,53.1c10.7-1,20.1,6.6,21.5,17.3v150.5c-4,23.8-37.6,22.5-39.4-2.3V72.3c.6-9.9,7.9-18.2,17.9-19.2Z" style="fill: #fff;"/>
  </g>
</svg>